<?xml version="1.0" encoding="UTF-8" standalone="no"?>
<!-- Created with Inkscape (http://www.inkscape.org/) -->

<svg
   xmlns:dc="http://purl.org/dc/elements/1.1/"
   xmlns:cc="http://creativecommons.org/ns#"
   xmlns:rdf="http://www.w3.org/1999/02/22-rdf-syntax-ns#"
   xmlns:svg="http://www.w3.org/2000/svg"
   xmlns="http://www.w3.org/2000/svg"
   xmlns:sodipodi="http://sodipodi.sourceforge.net/DTD/sodipodi-0.dtd"
   xmlns:inkscape="http://www.inkscape.org/namespaces/inkscape"
   id="svg2"
   version="1.1"
   inkscape:version="0.48.4 r9939"
   width="1052.36"
   height="744.09003"
   xml:space="preserve"
   sodipodi:docname="knapsack.svg"><metadata
     id="metadata8"><rdf:RDF><cc:Work
         rdf:about=""><dc:format>image/svg+xml</dc:format><dc:type
           rdf:resource="http://purl.org/dc/dcmitype/StillImage" /><dc:title /></cc:Work></rdf:RDF></metadata><defs
     id="defs6"><inkscape:perspective
       sodipodi:type="inkscape:persp3d"
       inkscape:vp_x="2.9962152 : 294.89247 : 1"
       inkscape:vp_y="0 : 1000 : 0"
       inkscape:vp_z="1055.3562 : 294.89247 : 1"
       inkscape:persp3d-origin="529.17621 : 170.87747 : 1"
       id="perspective4729" /><clipPath
       clipPathUnits="userSpaceOnUse"
       id="clipPath424"><path
         d="m 5319.79,3634.21 c 0,0 -28.51,-114.11 32.61,-114.11 61.13,0 289.31,-44.83 297.46,-12.23 8.16,32.6 0,97.79 0,97.79 l -330.07,28.55 z"
         id="path426"
         inkscape:connector-curvature="0" /></clipPath><clipPath
       clipPathUnits="userSpaceOnUse"
       id="clipPath502"><path
         d="m 1495.51,1869.48 c 0,0 18.33,-101.87 75.39,-250.61 57.05,-148.73 16.3,-191.52 -44.82,-287.29 -61.13,-95.74 -107.39,-154.81 -105.95,-230.22 1.27,-66.41 1.09,-65.27 1.09,-65.27 l 80.41,27.34 c 0,0 -28.53,129.62 48.9,202.97 77.42,73.35 163,167.06 95.75,340.24 -67.23,173.18 -81.49,171.16 -91.68,277.1 l -59.09,-14.26 z"
         id="path504"
         inkscape:connector-curvature="0" /></clipPath></defs><sodipodi:namedview
     pagecolor="#ffffff"
     bordercolor="#666666"
     borderopacity="1"
     objecttolerance="10"
     gridtolerance="10"
     guidetolerance="10"
     inkscape:pageopacity="0"
     inkscape:pageshadow="2"
     inkscape:window-width="1366"
     inkscape:window-height="717"
     id="namedview4"
     showgrid="false"
     inkscape:zoom="0.6675088"
     inkscape:cx="428.99245"
     inkscape:cy="307.17964"
     inkscape:window-x="0"
     inkscape:window-y="0"
     inkscape:window-maximized="1"
     inkscape:current-layer="g10" /><g
     id="g10"
     inkscape:groupmode="layer"
     inkscape:label="ink_ext_XXXXXX"
     transform="matrix(1.25,0,0,-1.25,0,744.09)"><g
       id="g4747"
       transform="translate(7.1909164,-146.33164)"><path
         d="m 82.310593,359.27984 c 0,0 -8.238585,-20.85488 -9.782918,-35.53242 -1.545593,-14.67879 4.118658,-33.73026 -8.497644,-47.89343 C 51.413724,261.69335 46.006014,258.86122 46.006014,258.86122 l 8.754197,-9.78418 c 0,0 16.221871,8.23984 22.401743,19.31055 6.179882,11.06944 11.073233,18.28056 11.329783,34.50117 0.25654,16.22186 -6.181144,56.39108 -6.181144,56.39108"
         style="fill:#4d4d4d;fill-opacity:1;fill-rule:nonzero;stroke:none"
         id="path108"
         inkscape:connector-curvature="0" /><path
         d="m 81.539687,309.06863 c 0,0 -12.616308,-1.28653 -13.389735,-7.98076 -0.772167,-6.69424 -2.316509,-14.93407 5.407705,-13.38848 7.725476,1.54434 7.725476,3.86338 7.725476,3.86338 0,0 -5.408967,0.51436 -5.151161,8.23731 0.256555,7.72548 5.407715,9.26855 5.407715,9.26855"
         style="fill:#666666;fill-opacity:1;fill-rule:nonzero;stroke:none"
         id="path110"
         inkscape:connector-curvature="0" /><path
         d="m 240.16039,359.27984 c 0,0 8.23984,-20.85488 9.78544,-35.53242 1.54434,-14.67879 -4.11993,-33.73026 8.49638,-47.89343 12.61758,-14.16064 18.02276,-16.99277 18.02276,-16.99277 l -8.75293,-9.78418 c 0,0 -16.22187,8.23984 -22.40049,19.31055 -6.18114,11.06944 -11.07323,18.28056 -11.32977,34.50117 -0.25782,16.22186 6.17861,56.39108 6.17861,56.39108"
         style="fill:#4d4d4d;fill-opacity:1;fill-rule:nonzero;stroke:none"
         id="path112"
         inkscape:connector-curvature="0" /><path
         d="m 240.93256,309.06863 c 0,0 12.61757,-1.28653 13.38847,-7.98076 0.77343,-6.69424 2.31778,-14.93407 -5.40518,-13.38848 -7.72675,1.54434 -7.72675,3.86338 -7.72675,3.86338 0,0 5.40772,0.51436 5.15116,8.23731 -0.2578,7.72548 -5.4077,9.26855 -5.4077,9.26855"
         style="fill:#666666;fill-opacity:1;fill-rule:nonzero;stroke:none"
         id="path114"
         inkscape:connector-curvature="0" /><path
         d="m 136.64298,392.49701 c 0,0 2.3165,18.79619 12.61631,19.31054 10.2998,0.51562 42.48572,0.77343 48.66561,-3.34775 6.17987,-4.11992 8.23857,-17.25185 8.23857,-17.25185 l -10.04072,-0.77217 c 0,0 -1.28654,15.44971 -6.43644,15.44971 -5.15116,0 -40.42576,4.63554 -43.25915,-0.51436 -2.83213,-5.15117 -4.11993,-12.87412 -4.11993,-12.87412 l -5.66425,0"
         style="fill:#4d4d4d;fill-opacity:1;fill-rule:nonzero;stroke:none"
         id="path116"
         inkscape:connector-curvature="0" /><path
         d="m 236.54851,289.50154 c 0,0 9.01201,-2.06122 8.49639,-32.44627 -0.51436,-30.38124 -0.25782,-63.3406 -14.67627,-64.11277 -14.41972,-0.77217 -145.995552,2.06123 -145.995552,2.06123 0,0 -9.527633,-3.09121 -12.617569,8.49639 -3.089936,11.58632 1.78319,38.47449 4.634279,61.2819 2.83339,22.6583 11.073229,27.29511 11.073229,27.29511 0,0 -6.695506,4.633 -8.496384,39.13544 -1.51654,28.99488 5.664248,55.61892 33.986807,63.08658 28.32382,7.46767 41.71482,-3.34775 54.32986,-3.34775 12.61757,0 29.09725,5.41024 52.52772,3.34775 23.43172,-2.06121 32.70154,-16.48094 30.12597,-48.1525 -2.57307,-31.67031 -5.92081,-50.46523 -13.38848,-56.64511"
         style="fill:#2f92b5;fill-opacity:1;fill-rule:nonzero;stroke:none"
         id="path118"
         inkscape:connector-curvature="0" /><path
         d="m 116.81682,192.9425 c 0,0 -34.761521,-5.66426 -36.56366,3.0912 -1.803418,8.75421 -4.893354,67.20272 11.328507,76.47254 16.221873,9.26856 29.611613,16.9953 56.647643,16.22186 27.03729,-0.77469 28.06727,-0.77469 38.88143,-1.28778 10.81416,-0.51309 34.24462,-0.51309 40.68231,-9.01074 6.43768,-8.49639 4.89335,-40.16796 4.12118,-54.07206 -0.77216,-13.9041 5.92081,-31.41502 -2.57558,-32.7028 -8.49765,-1.28653 -61.79753,0 -72.61169,0.77342 -10.81416,0.77217 -39.91014,0.51436 -39.91014,0.51436"
         style="fill:#5ab9db;fill-opacity:1;fill-rule:nonzero;stroke:none"
         id="path120"
         inkscape:connector-curvature="0" /><path
         d="M 212.60116,254.48096 99.563697,253.71005"
         style="fill:none;stroke:#9bd5eb;stroke-width:1.15869713;stroke-linecap:butt;stroke-linejoin:miter;stroke-miterlimit:10;stroke-opacity:1;stroke-dasharray:0.77246474, 1.23594307;stroke-dashoffset:0"
         id="path122"
         inkscape:connector-curvature="0" /><path
         d="M 212.60116,236.45946 99.563697,235.68603"
         style="fill:none;stroke:#9bd5eb;stroke-width:1.15869713;stroke-linecap:butt;stroke-linejoin:miter;stroke-miterlimit:10;stroke-opacity:1;stroke-dasharray:0.77246474, 1.23594307;stroke-dashoffset:0"
         id="path124"
         inkscape:connector-curvature="0" /><path
         d="m 206.67909,238.54849 -104.79762,0 0,12.35976 104.79762,0.25655 0,-12.61631"
         style="fill:#808080;fill-opacity:1;fill-rule:nonzero;stroke:none"
         id="path126"
         inkscape:connector-curvature="0" /><path
         d="m 206.67909,251.23431 0,-12.61757 c 0,0 5.40771,-1.54433 6.17988,5.66552 0.77343,7.21239 -6.17988,6.95205 -6.17988,6.95205"
         style="fill:#b2b2b2;fill-opacity:1;fill-rule:nonzero;stroke:none"
         id="path128"
         inkscape:connector-curvature="0" /><path
         d="m 102.7143,251.23431 0,-12.61757 c 0,0 -5.406443,-1.54433 -6.179883,5.66552 -0.77216,7.21239 6.179883,6.95205 6.179883,6.95205"
         style="fill:#b2b2b2;fill-opacity:1;fill-rule:nonzero;stroke:none"
         id="path130"
         inkscape:connector-curvature="0" /><path
         d="m 106.77357,244.72964 96.30147,0 0,1.80188 -96.30147,0 0,-1.80188 z"
         style="fill:#b2b2b2;fill-opacity:1;fill-rule:nonzero;stroke:none"
         id="path132"
         inkscape:connector-curvature="0" /><path
         d="m 106.77357,243.18405 96.30147,0 0,1.79939 -96.30147,0 0,-1.79939 z"
         style="fill:#666666;fill-opacity:1;fill-rule:nonzero;stroke:none"
         id="path134"
         inkscape:connector-curvature="0" /><path
         d="m 200.56493,226.41369 c -2.14464,0 -3.88234,2.18886 -3.88234,4.89462 0,2.70322 1.7377,4.89335 3.88234,4.89335 2.14336,0 3.88106,-2.19013 3.88106,-4.89335 0,-2.70576 -1.7377,-4.89462 -3.88106,-4.89462 z m 3.47539,10.91526 0,9.42779 -6.95332,0 0,-9.42779 c -1.47483,-1.35857 -2.44541,-3.54112 -2.44541,-6.02064 0,-4.12498 2.65141,-7.46894 5.92334,-7.46894 3.27066,0 5.92207,3.34396 5.92207,7.46894 0,2.47952 -0.97059,4.66207 -2.44668,6.02064"
         style="fill:#b2b2b2;fill-opacity:1;fill-rule:nonzero;stroke:none"
         id="path136"
         inkscape:connector-curvature="0" /><path
         d="m 188.91289,191.14162 c 0,0 1.80214,26.2626 -18.53838,30.89813 -20.34179,4.63428 -37.59364,3.3465 -45.06131,-9.78417 -7.4664,-13.13319 -8.49638,-19.31308 -8.49638,-19.31308 0,0 68.49177,-1.54434 72.09607,-1.80088"
         style="fill:#2f92b5;fill-opacity:1;fill-rule:nonzero;stroke:none"
         id="path138"
         inkscape:connector-curvature="0" /><path
         d="m 152.86485,209.16311 c 0,1.99424 2.53514,3.60809 5.66552,3.60809 3.12785,0 5.66426,-1.61385 5.66426,-3.60809 0,-1.99046 -2.53641,-3.60556 -5.66426,-3.60556 -3.13038,0 -5.66552,1.6151 -5.66552,3.60556"
         style="fill:#4d4d4d;fill-opacity:1;fill-rule:nonzero;stroke:none"
         id="path140"
         inkscape:connector-curvature="0" /><path
         d="m 119.39113,193.4594 c 0,0 6.29489,22.59888 21.62959,26.00477 9.26981,2.06122 34.17763,0.54594 40.4245,-9.26982 5.4077,-8.49639 4.12117,-19.31054 4.12117,-19.31054"
         style="fill:none;stroke:#9bd5eb;stroke-width:1.15869713;stroke-linecap:butt;stroke-linejoin:miter;stroke-miterlimit:10;stroke-opacity:1;stroke-dasharray:0.77246474, 1.23594307;stroke-dashoffset:0"
         id="path142"
         inkscape:connector-curvature="0" /><path
         d="m 147.20059,288.98718 c 0,0 6.17988,-7.4702 5.66426,-21.11522 -0.51562,-13.64755 -1.80215,-19.82742 -1.80215,-19.82742 l 29.35253,-0.25782 c 0,0 0.77343,13.13445 0.25781,24.2039 -0.51561,11.07197 -1.54433,15.70625 -1.54433,15.70625 l -31.92812,1.29031"
         style="fill:#4d4d4d;fill-opacity:1;fill-rule:nonzero;stroke:none"
         id="path144"
         inkscape:connector-curvature="0" /><path
         d="M 223.09937,376.54937 114.59888,378.761"
         style="fill:none;stroke:#9bd5eb;stroke-width:1.21266294;stroke-linecap:butt;stroke-linejoin:miter;stroke-miterlimit:10;stroke-opacity:1;stroke-dasharray:0.80844074, 1.29350316;stroke-dashoffset:0"
         id="path146"
         inkscape:connector-curvature="0" /><path
         d="m 218.5245,352.06997 -43.17955,0.72163 1.20943,27.08658 -20.08397,1.28778 -0.93266,-28.04199 -44.90207,0.74816 -0.51436,-13.38973 44.95514,-1.28401 -0.92382,-27.81072 19.31181,-0.77217 1.24988,28.02177 43.55235,-1.24608 0.25782,14.67878"
         style="fill:#4d4d4d;fill-opacity:1;fill-rule:nonzero;stroke:none"
         id="path148"
         inkscape:connector-curvature="0" /><path
         d="m 116.37449,379.75053 c 0,0 -8.49891,-33.21211 -5.92206,-46.86093 2.57431,-13.64754 5.40644,-23.6908 31.6703,-24.20515 26.26385,-0.51309 50.72429,-4.8921 60.76755,-1.02873 10.04073,3.86338 13.64502,16.99279 14.16191,26.52167 0.5131,9.52637 0.25654,43.51571 0.25654,43.51571 l 11.8454,-0.77343 c 0,0 11.58633,-53.29989 -2.57558,-69.52049 -14.1619,-16.22314 -35.01932,-12.87791 -51.49773,-11.33104 -16.47841,1.54434 -56.64764,1.28905 -66.94743,10.55887 -10.298533,9.26856 -13.902843,22.65577 -10.555093,43.77099 3.346493,21.11522 9.268563,29.35253 9.268563,29.35253 l 9.52763,0"
         style="fill:#5ab9db;fill-opacity:1;fill-rule:nonzero;stroke:none"
         id="path150"
         inkscape:connector-curvature="0" /><path
         d="m 221.61442,369.32309 c 0,1.56329 1.26758,2.83213 2.83214,2.83213 1.56455,0 2.83213,-1.26884 2.83213,-2.83213 0,-1.56582 -1.26758,-2.83339 -2.83213,-2.83339 -1.56456,0 -2.83214,1.26757 -2.83214,2.83339"
         style="fill:#4d4d4d;fill-opacity:1;fill-rule:nonzero;stroke:none"
         id="path152"
         inkscape:connector-curvature="0" /><path
         d="m 222.90096,359.27984 c 0,1.56582 1.26757,2.83465 2.83213,2.83465 1.56455,0 2.83339,-1.26883 2.83339,-2.83465 0,-1.56456 -1.26884,-2.83339 -2.83339,-2.83339 -1.56456,0 -2.83213,1.26883 -2.83213,2.83339"
         style="fill:#4d4d4d;fill-opacity:1;fill-rule:nonzero;stroke:none"
         id="path154"
         inkscape:connector-curvature="0" /><path
         d="m 223.67313,349.49313 c 0,1.56583 1.26756,2.83467 2.83213,2.83467 1.56455,0 2.83339,-1.26884 2.83339,-2.83467 0,-1.56202 -1.26884,-2.83086 -2.83339,-2.83086 -1.56457,0 -2.83213,1.26884 -2.83213,2.83086"
         style="fill:#4d4d4d;fill-opacity:1;fill-rule:nonzero;stroke:none"
         id="path156"
         inkscape:connector-curvature="0" /><path
         d="m 223.67313,340.22458 c 0,1.56456 1.26756,2.83339 2.83213,2.83339 1.56455,0 2.83339,-1.26883 2.83339,-2.83339 0,-1.56329 -1.26884,-2.83339 -2.83339,-2.83339 -1.56457,0 -2.83213,1.2701 -2.83213,2.83339"
         style="fill:#4d4d4d;fill-opacity:1;fill-rule:nonzero;stroke:none"
         id="path158"
         inkscape:connector-curvature="0" /><path
         d="m 222.90096,330.69695 c 0,1.56708 1.26757,2.83592 2.83213,2.83592 1.56455,0 2.83339,-1.26884 2.83339,-2.83592 0,-1.5633 -1.26884,-2.83086 -2.83339,-2.83086 -1.56456,0 -2.83213,1.26756 -2.83213,2.83086"
         style="fill:#4d4d4d;fill-opacity:1;fill-rule:nonzero;stroke:none"
         id="path160"
         inkscape:connector-curvature="0" /><path
         d="m 221.87098,321.94275 c 0,1.56708 1.26883,2.83339 2.83213,2.83339 1.56582,0 2.83339,-1.26631 2.83339,-2.83339 0,-1.56456 -1.26757,-2.83339 -2.83339,-2.83339 -1.5633,0 -2.83213,1.26883 -2.83213,2.83339"
         style="fill:#4d4d4d;fill-opacity:1;fill-rule:nonzero;stroke:none"
         id="path162"
         inkscape:connector-curvature="0" /><path
         d="m 218.78104,313.96072 c 0,1.56582 1.26883,2.83339 2.83338,2.83339 1.56457,0 2.83214,-1.26757 2.83214,-2.83339 0,-1.56456 -1.26757,-2.83213 -2.83214,-2.83213 -1.56455,0 -2.83338,1.26757 -2.83338,2.83213"
         style="fill:#4d4d4d;fill-opacity:1;fill-rule:nonzero;stroke:none"
         id="path164"
         inkscape:connector-curvature="0" /><path
         d="m 212.85897,306.49431 c 0,1.56456 1.26883,2.8334 2.83339,2.8334 1.5633,0 2.83214,-1.26884 2.83214,-2.8334 0,-1.56329 -1.26884,-2.83213 -2.83214,-2.83213 -1.56456,0 -2.83339,1.26884 -2.83339,2.83213"
         style="fill:#4d4d4d;fill-opacity:1;fill-rule:nonzero;stroke:none"
         id="path166"
         inkscape:connector-curvature="0" /><path
         d="m 204.36131,301.60223 c 0,1.56455 1.26884,2.83339 2.83213,2.83339 1.56583,0 2.83341,-1.26884 2.83341,-2.83339 0,-1.56582 -1.26758,-2.83339 -2.83341,-2.83339 -1.56329,0 -2.83213,1.26757 -2.83213,2.83339"
         style="fill:#4d4d4d;fill-opacity:1;fill-rule:nonzero;stroke:none"
         id="path168"
         inkscape:connector-curvature="0" /><path
         d="m 195.35057,299.80008 c 0,1.56456 1.26757,2.83338 2.83213,2.83338 1.56456,0 2.83213,-1.26882 2.83213,-2.83338 0,-1.56329 -1.26757,-2.83466 -2.83213,-2.83466 -1.56456,0 -2.83213,1.27137 -2.83213,2.83466"
         style="fill:#4d4d4d;fill-opacity:1;fill-rule:nonzero;stroke:none"
         id="path170"
         inkscape:connector-curvature="0" /><path
         d="m 186.08076,299.28572 c 0,1.56329 1.26756,2.83213 2.83213,2.83213 1.56456,0 2.83339,-1.26884 2.83339,-2.83213 0,-1.56582 -1.26883,-2.83339 -2.83339,-2.83339 -1.56457,0 -2.83213,1.26757 -2.83213,2.83339"
         style="fill:#4d4d4d;fill-opacity:1;fill-rule:nonzero;stroke:none"
         id="path172"
         inkscape:connector-curvature="0" /><path
         d="m 133.03741,302.88876 c 0,1.56581 1.26884,2.83465 2.83341,2.83465 1.56329,0 2.83212,-1.26884 2.83212,-2.83465 0,-1.56204 -1.26883,-2.83214 -2.83212,-2.83214 -1.56457,0 -2.83341,1.2701 -2.83341,2.83214"
         style="fill:#4d4d4d;fill-opacity:1;fill-rule:nonzero;stroke:none"
         id="path174"
         inkscape:connector-curvature="0" /><path
         d="m 120.42111,304.94998 c 0,1.56456 1.26884,2.83339 2.83214,2.83339 1.56455,0 2.83212,-1.26883 2.83212,-2.83339 0,-1.56583 -1.26757,-2.83339 -2.83212,-2.83339 -1.5633,0 -2.83214,1.26756 -2.83214,2.83339"
         style="fill:#4d4d4d;fill-opacity:1;fill-rule:nonzero;stroke:none"
         id="path176"
         inkscape:connector-curvature="0" /><path
         d="m 111.66691,308.81209 c 0,1.56328 1.26758,2.83212 2.83213,2.83212 1.56456,0 2.83213,-1.26884 2.83213,-2.83212 0,-1.5633 -1.26757,-2.83214 -2.83213,-2.83214 -1.56455,0 -2.83213,1.26884 -2.83213,2.83214"
         style="fill:#4d4d4d;fill-opacity:1;fill-rule:nonzero;stroke:none"
         id="path178"
         inkscape:connector-curvature="0" /><path
         d="m 106.0014,315.50633 c 0,1.56329 1.26883,2.83213 2.83212,2.83213 1.56583,0 2.83339,-1.26884 2.83339,-2.83213 0,-1.56331 -1.26756,-2.83214 -2.83339,-2.83214 -1.56329,0 -2.83212,1.26883 -2.83212,2.83214"
         style="fill:#4d4d4d;fill-opacity:1;fill-rule:nonzero;stroke:none"
         id="path180"
         inkscape:connector-curvature="0" /><path
         d="m 102.65364,325.03269 c 0,1.56582 1.2701,2.8334 2.8334,2.8334 1.56329,0 2.83212,-1.26758 2.83212,-2.8334 0,-1.56329 -1.26883,-2.83213 -2.83212,-2.83213 -1.5633,0 -2.8334,1.26884 -2.8334,2.83213"
         style="fill:#4d4d4d;fill-opacity:1;fill-rule:nonzero;stroke:none"
         id="path182"
         inkscape:connector-curvature="0" /><path
         d="m 101.1093,334.81561 c 0,1.56582 1.26884,2.83465 2.83213,2.83465 1.56456,0 2.83214,-1.26883 2.83214,-2.83465 0,-1.56331 -1.26758,-2.83213 -2.83214,-2.83213 -1.56329,0 -2.83213,1.26882 -2.83213,2.83213"
         style="fill:#4d4d4d;fill-opacity:1;fill-rule:nonzero;stroke:none"
         id="path184"
         inkscape:connector-curvature="0" /><path
         d="m 100.33714,344.08795 c 0,1.5633 1.26757,2.83212 2.83212,2.83212 1.56456,0 2.83214,-1.26882 2.83214,-2.83212 0,-1.56583 -1.26758,-2.83339 -2.83214,-2.83339 -1.56455,0 -2.83212,1.26756 -2.83212,2.83339"
         style="fill:#4d4d4d;fill-opacity:1;fill-rule:nonzero;stroke:none"
         id="path186"
         inkscape:connector-curvature="0" /><path
         d="m 101.36712,352.84341 c 0,1.56203 1.26756,2.83213 2.83212,2.83213 1.56456,0 2.83213,-1.2701 2.83213,-2.83213 0,-1.56455 -1.26757,-2.83339 -2.83213,-2.83339 -1.56456,0 -2.83212,1.26884 -2.83212,2.83339"
         style="fill:#4d4d4d;fill-opacity:1;fill-rule:nonzero;stroke:none"
         id="path188"
         inkscape:connector-curvature="0" /><path
         d="m 103.68362,362.11197 c 0,1.5633 1.26758,2.8334 2.83213,2.8334 1.56456,0 2.8334,-1.2701 2.8334,-2.8334 0,-1.56455 -1.26884,-2.83339 -2.8334,-2.83339 -1.56455,0 -2.83213,1.26884 -2.83213,2.83339"
         style="fill:#4d4d4d;fill-opacity:1;fill-rule:nonzero;stroke:none"
         id="path190"
         inkscape:connector-curvature="0" /><path
         d="m 106.25794,372.15396 c 0,1.56581 1.26883,2.83465 2.83212,2.83465 1.56457,0 2.8334,-1.26884 2.8334,-2.83465 0,-1.5633 -1.26883,-2.8334 -2.8334,-2.8334 -1.56329,0 -2.83212,1.2701 -2.83212,2.8334"
         style="fill:#4d4d4d;fill-opacity:1;fill-rule:nonzero;stroke:none"
         id="path192"
         inkscape:connector-curvature="0" /><path
         d="m 147.20059,288.98718 c 0,0 -2.57432,20.85488 9.26982,20.85488 11.84288,0 19.82617,-0.25907 21.88613,-4.89208 2.05869,-4.63554 0.77217,-17.25311 0.77217,-17.25311 l 4.63428,-0.25655 c 0,0 4.12117,22.14267 -5.66426,24.20389 -9.78544,2.06123 -29.09725,4.12245 -32.95936,-2.57558 -3.86211,-6.69297 -4.11865,-20.08145 -4.11865,-20.08145 l 6.17987,0"
         style="fill:#b2b2b2;fill-opacity:1;fill-rule:nonzero;stroke:none"
         id="path194"
         inkscape:connector-curvature="0" /></g><text
       xml:space="preserve"
       style="font-size:30px;font-style:normal;font-variant:normal;font-weight:normal;font-stretch:normal;line-height:125%;letter-spacing:0px;word-spacing:0px;fill:#000000;fill-opacity:1;stroke:none;font-family:Latin Modern Roman;-inkscape-font-specification:Latin Modern Roman"
       x="524.36438"
       y="457.01376"
       id="text4793"
       sodipodi:linespacing="125%"
       transform="matrix(0.8,0,0,-0.8,0,595.272)"><tspan
         sodipodi:role="line"
         id="tspan4795"
         x="524.36438"
         y="457.01376" /></text>
<g
       id="g3868"
       transform="matrix(1.0184946,0,0,1.0184946,-7.5980646,16.881451)"><path
         transform="matrix(0.95368503,0,0,-0.95368503,-107.43723,553.56894)"
         d="m 625.00002,493.56036 c 0,22.52433 -18.25957,40.7839 -40.78389,40.7839 -22.52433,0 -40.7839,-18.25957 -40.7839,-40.7839 0,-22.52432 18.25957,-40.78389 40.7839,-40.78389 22.52432,0 40.78389,18.25957 40.78389,40.78389 z"
         sodipodi:ry="40.783897"
         sodipodi:rx="40.783897"
         sodipodi:cy="493.56036"
         sodipodi:cx="584.21613"
         id="path3048"
         style="fill:#2c96ff;fill-opacity:1;stroke:none"
         sodipodi:type="arc" /><rect
         ry="0.053058673"
         transform="scale(1,-1)"
         y="-225.01317"
         x="415.28265"
         height="68.876549"
         width="68.876549"
         id="rect3831"
         style="fill:#0ce8a3;fill-opacity:1;stroke:none" /><path
         inkscape:transform-center-y="-14.260794"
         transform="matrix(0.81965986,0,0,-0.81965986,114.92234,653.61475)"
         d="m 513.03566,608.00567 24.10797,-44.42096 26.4157,-43.0886 26.41569,43.08859 24.10797,44.42097 -50.52366,1.33237 z"
         inkscape:randomized="0"
         inkscape:rounded="0"
         inkscape:flatsided="false"
         sodipodi:arg2="3.6651914"
         sodipodi:arg1="2.6179939"
         sodipodi:r2="30.50222"
         sodipodi:r1="58.339703"
         sodipodi:cy="578.83582"
         sodipodi:cx="563.55933"
         sodipodi:sides="3"
         id="path3835"
         style="fill:#ff6740;fill-opacity:1;stroke:none"
         sodipodi:type="star" /><path
         inkscape:transform-center-y="-5.0667512"
         transform="matrix(0.58067279,0,0,-0.58067279,229.92191,421.07981)"
         d="m 597.45764,516.32812 69.52309,50.51148 -26.55546,81.72929 -85.93526,-10e-6 -26.55545,-81.72929 z"
         inkscape:randomized="0"
         inkscape:rounded="0"
         inkscape:flatsided="true"
         sodipodi:arg2="-0.9424778"
         sodipodi:arg1="-1.5707963"
         sodipodi:r2="59.139866"
         sodipodi:r1="73.100899"
         sodipodi:cy="589.42902"
         sodipodi:cx="597.45764"
         sodipodi:sides="5"
         id="path3839"
         style="fill:#ff19ce;fill-opacity:1;stroke:none"
         sodipodi:type="star" /></g><text
       xml:space="preserve"
       style="font-size:35px;font-style:normal;font-variant:normal;font-weight:normal;font-stretch:normal;line-height:125%;letter-spacing:0px;word-spacing:0px;fill:#000000;fill-opacity:1;stroke:none;font-family:Latin Modern Roman;-inkscape-font-specification:Latin Modern Roman"
       x="338.57233"
       y="245.2202"
       id="text3841"
       sodipodi:linespacing="125%"
       transform="matrix(0.8,0,0,-0.8,0,595.272)"><tspan
         sodipodi:role="line"
         id="tspan3843"
         x="338.57233"
         y="245.2202" /></text>
<text
       xml:space="preserve"
       style="font-size:35px;font-style:normal;font-variant:normal;font-weight:normal;font-stretch:normal;line-height:125%;letter-spacing:0px;word-spacing:0px;fill:#000000;fill-opacity:1;stroke:none;font-family:Latin Modern Roman;-inkscape-font-specification:Latin Modern Roman"
       x="614.22412"
       y="486.41553"
       id="text3845"
       sodipodi:linespacing="125%"
       transform="matrix(0.8,0,0,-0.8,0,595.272)"><tspan
         sodipodi:role="line"
         id="tspan3847"
         x="614.22412"
         y="486.41553" /></text>
</g></svg>